<?xml version="1.0" encoding="utf-8"?>
<!-- Generator: Adobe Illustrator 24.0.1, SVG Export Plug-In . SVG Version: 6.00 Build 0)  -->
<svg version="1.1" id="Слой_1" xmlns="http://www.w3.org/2000/svg" xmlns:xlink="http://www.w3.org/1999/xlink" x="0px" y="0px"
	 viewBox="0 0 16.9 16.9" style="enable-background:new 0 0 16.9 16.9;" xml:space="preserve">
<style type="text/css">
	.st0{fill-rule:evenodd;clip-rule:evenodd;fill:#303030;}
	.st1{fill:#A20909;}
</style>
<g>
	<path id="Фигура_522" class="st0" d="M12,9.2c-0.5-0.5-1.2-1-1.9-1.2c1.3-0.9,1.7-2.7,0.8-4.1C10,2.6,8.1,2.3,6.8,3.2
		S5.2,5.9,6.1,7.2C6.3,7.5,6.5,7.8,6.8,8c-2,0.7-3.4,2.6-3.4,4.8h0.8c0-2.3,1.9-4.2,4.2-4.2s4.2,1.9,4.2,4.2h0.8
		C13.5,11.4,13,10.1,12,9.2z M8.5,7.7c-1.2,0-2.1-0.9-2.1-2.1c0-1.2,0.9-2.1,2.1-2.1c1.2,0,2.1,0.9,2.1,2.1c0,0,0,0,0,0
		C10.6,6.8,9.6,7.7,8.5,7.7L8.5,7.7z"/>
	<g>
		<path class="st1" d="M8.5,16.4c-4.4,0-8-3.6-8-8c0-4.4,3.6-8,8-8s8,3.6,8,8C16.4,12.9,12.9,16.4,8.5,16.4z M8.5,1.2
			c-4,0-7.3,3.3-7.3,7.3c0,4,3.3,7.3,7.3,7.3s7.3-3.3,7.3-7.3C15.7,4.5,12.5,1.2,8.5,1.2z"/>
	</g>
</g>
</svg>
